<?xml version="1.0" standalone="no"?>
<!DOCTYPE svg PUBLIC "-//W3C//DTD SVG 20010904//EN"
 "http://www.w3.org/TR/2001/REC-SVG-20010904/DTD/svg10.dtd">
<svg version="1.0" xmlns="http://www.w3.org/2000/svg"
 width="640.000000pt" height="564.000000pt" viewBox="0 0 640.000000 564.000000"
 preserveAspectRatio="xMidYMid meet">

<g transform="translate(0.000000,564.000000) scale(0.100000,-0.100000)"
fill="#000000" stroke="none">
<path d="M29 5353 c-1 -5 0 -53 1 -107 2 -77 7 -108 22 -138 12 -22 18 -49 15
-64 -2 -14 0 -42 5 -62 5 -20 13 -86 18 -147 9 -118 20 -174 51 -272 11 -34
19 -75 17 -90 -3 -27 18 -121 48 -213 8 -25 14 -61 14 -81 0 -41 65 -177 93
-193 33 -20 52 5 52 69 1 48 5 60 24 76 29 24 32 24 64 -1 17 -13 28 -34 32
-58 8 -57 37 -175 47 -195 6 -12 18 -17 36 -15 26 3 27 6 30 70 2 54 7 70 22
78 33 18 68 -24 80 -95 6 -33 18 -94 27 -135 9 -43 16 -127 17 -200 1 -98 5
-132 18 -159 13 -25 16 -47 12 -85 -5 -46 5 -172 22 -269 8 -47 35 -65 68 -44
21 14 22 21 18 96 -3 46 1 114 9 156 12 68 15 75 46 92 39 21 58 13 86 -35 14
-24 19 -59 22 -169 6 -214 21 -351 45 -418 30 -84 58 -143 86 -184 16 -24 24
-50 24 -79 0 -26 10 -61 25 -91 14 -27 29 -66 32 -87 11 -74 60 -137 90 -118
25 15 43 91 43 179 0 50 6 90 15 108 8 15 17 45 21 65 4 20 13 46 20 57 8 11
14 41 14 68 0 55 16 68 55 43 23 -15 25 -22 25 -102 0 -57 5 -95 15 -115 13
-24 15 -48 9 -113 -6 -79 -5 -84 17 -99 21 -15 25 -15 53 3 28 17 31 25 31 67
0 44 2 48 26 51 20 2 32 -5 53 -32 15 -20 32 -36 38 -36 14 0 1 47 -22 80 -51
71 -12 108 53 50 41 -36 44 -36 66 -9 12 15 24 20 37 15 33 -10 90 -77 128
-149 30 -58 36 -79 36 -132 0 -79 -16 -100 -68 -90 -48 9 -117 58 -149 106
-15 23 -33 39 -45 39 -22 0 -22 1 7 -105 14 -48 15 -66 5 -95 -14 -43 2 -249
25 -303 18 -43 34 -50 71 -31 34 18 65 8 90 -31 23 -35 46 -162 34 -186 -14
-25 -12 -68 6 -139 10 -39 13 -76 9 -101 -6 -34 -3 -45 16 -65 28 -30 49 -30
77 -1 20 21 22 34 22 129 0 84 3 110 16 122 18 19 28 20 57 5 46 -25 57 -70
62 -261 5 -232 13 -315 30 -342 9 -13 15 -42 14 -67 -1 -24 4 -64 11 -89 6
-25 15 -69 19 -98 8 -60 32 -89 76 -94 34 -3 33 -12 19 152 -4 41 -6 111 -6
155 1 44 2 103 2 130 0 28 7 70 15 96 9 25 15 61 14 80 0 18 2 81 6 139 10
135 23 153 76 107 36 -31 49 -59 49 -106 0 -22 9 -63 20 -91 13 -33 20 -74 20
-117 0 -73 15 -166 36 -228 8 -23 14 -47 14 -55 0 -19 37 -141 62 -205 11 -27
24 -80 29 -119 9 -70 21 -96 45 -96 12 0 13 30 9 173 -3 94 -7 240 -9 322 -2
83 -9 180 -16 216 -12 60 -11 70 8 122 12 31 24 92 28 137 9 110 32 124 101
61 l32 -29 -4 -118 c-3 -90 0 -126 12 -158 9 -23 17 -66 17 -96 1 -30 9 -68
19 -84 11 -21 14 -42 10 -71 -4 -31 0 -52 16 -83 13 -25 21 -60 21 -90 0 -27
6 -57 15 -68 8 -10 15 -38 15 -62 0 -23 7 -59 15 -79 8 -19 15 -48 15 -63 0
-15 7 -41 15 -56 8 -16 15 -38 15 -49 1 -11 7 -31 15 -45 8 -14 15 -36 15 -50
1 -34 45 -153 59 -158 8 -3 11 92 11 348 0 303 2 355 16 382 11 21 14 45 11
73 -4 29 -1 50 10 71 10 16 18 54 19 84 0 30 8 73 17 96 12 32 15 68 12 158
l-4 118 32 29 c69 63 92 49 101 -61 4 -45 16 -106 28 -137 19 -52 20 -62 8
-122 -7 -36 -14 -133 -16 -216 -2 -82 -6 -228 -9 -322 -4 -143 -3 -173 9 -173
24 0 36 26 45 96 5 39 18 92 29 119 25 64 62 186 62 205 0 8 6 32 14 55 21 62
36 155 36 228 0 43 7 84 20 117 11 28 20 69 20 91 0 47 13 75 49 106 53 46 66
28 76 -107 4 -58 6 -121 6 -139 -1 -19 5 -55 14 -80 8 -26 15 -68 15 -96 0
-27 1 -86 2 -130 0 -44 -2 -114 -6 -155 -14 -164 -15 -155 19 -152 44 5 68 34
76 94 4 29 13 73 19 98 7 25 12 65 11 89 -1 25 5 54 14 67 17 27 25 110 30
342 5 191 16 236 62 261 29 15 39 14 57 -5 13 -12 16 -38 16 -118 0 -89 3
-107 21 -130 26 -33 52 -33 79 1 16 21 20 35 15 64 -4 22 0 63 9 99 18 71 20
114 6 139 -12 24 11 151 34 186 25 39 56 49 90 31 37 -19 53 -12 71 31 23 54
39 260 25 303 -10 29 -9 47 5 95 29 106 29 105 7 105 -12 0 -30 -16 -45 -39
-32 -48 -101 -97 -149 -106 -52 -10 -68 11 -68 90 0 53 6 74 36 132 38 72 95
139 128 149 13 5 25 0 37 -15 22 -27 25 -27 66 9 65 58 104 21 53 -50 -23 -33
-36 -80 -22 -80 6 0 23 16 38 36 21 27 33 34 53 32 24 -3 26 -7 26 -51 0 -42
3 -50 31 -67 28 -18 32 -18 53 -3 22 15 23 20 17 99 -6 65 -4 89 9 113 10 20
15 58 15 115 0 80 2 87 25 102 39 25 55 12 55 -43 0 -27 6 -57 14 -68 7 -11
16 -37 20 -57 4 -20 13 -50 21 -65 9 -18 15 -58 15 -108 0 -88 18 -164 43
-179 30 -19 79 44 90 118 3 21 18 60 32 87 15 30 25 65 25 91 0 33 8 56 34 93
18 28 48 93 66 145 36 103 48 195 55 442 4 138 13 178 49 207 19 16 66 7 66
-13 0 -7 16 -21 35 -32 32 -17 38 -17 63 -4 16 9 39 40 57 75 28 57 30 67 31
185 1 73 8 157 17 200 9 41 21 102 27 135 12 71 47 113 80 95 15 -8 20 -24 22
-78 3 -64 4 -67 30 -70 18 -2 30 3 36 15 10 20 39 138 47 195 4 24 15 45 32
58 32 25 35 25 64 1 19 -16 23 -28 24 -76 0 -64 19 -89 53 -69 27 16 92 152
92 193 0 20 6 56 14 81 30 92 51 186 48 213 -2 15 6 56 17 90 31 98 42 154 51
272 5 61 13 127 18 147 5 20 7 48 5 62 -3 15 3 42 15 64 24 46 36 242 15 249
-16 6 -30 -23 -58 -115 -13 -42 -42 -122 -65 -177 -23 -55 -46 -120 -50 -145
-5 -25 -17 -61 -28 -80 -11 -19 -24 -57 -28 -83 -3 -27 -16 -60 -28 -73 -23
-27 -86 -46 -107 -33 -8 5 -24 9 -37 9 -24 0 -42 -32 -42 -73 0 -12 -14 -42
-30 -67 -16 -25 -30 -56 -30 -71 0 -14 -13 -43 -30 -65 -16 -22 -32 -59 -36
-82 -4 -27 -22 -61 -49 -96 -23 -30 -59 -88 -79 -128 -62 -124 -122 -174 -180
-152 -23 9 -20 66 4 106 27 45 27 88 -1 88 -13 0 -25 -11 -34 -32 -7 -18 -22
-44 -33 -58 -11 -14 -27 -41 -36 -60 -20 -45 -73 -119 -138 -193 -32 -38 -54
-73 -60 -99 -5 -23 -31 -70 -58 -107 -28 -36 -57 -82 -65 -101 -9 -19 -29 -60
-45 -91 -17 -31 -30 -63 -30 -70 0 -8 -11 -31 -25 -51 -14 -20 -25 -46 -25
-57 0 -27 -67 -101 -91 -101 -28 0 -34 27 -15 66 9 19 16 47 16 62 0 18 11 39
30 57 17 16 30 39 30 52 0 13 7 40 16 61 20 48 44 163 44 212 0 22 13 66 32
105 37 80 50 165 25 165 -20 0 -32 -22 -41 -73 -4 -21 -20 -59 -36 -84 -16
-25 -32 -59 -36 -77 -3 -17 -19 -58 -34 -91 -47 -102 -60 -133 -74 -172 -7
-21 -28 -60 -45 -88 -17 -28 -31 -62 -31 -80 0 -19 -12 -47 -29 -71 -16 -22
-33 -53 -37 -69 -3 -17 -27 -67 -53 -112 -38 -69 -53 -86 -89 -104 -34 -17
-45 -19 -57 -9 -20 17 -19 20 15 71 16 24 30 55 30 68 0 13 14 48 30 78 17 29
30 65 30 80 0 16 9 48 20 72 11 24 20 52 20 63 0 11 5 29 11 40 12 23 23 153
15 175 -10 24 -35 1 -51 -47 -9 -26 -24 -55 -34 -64 -10 -10 -21 -30 -25 -46
-7 -39 -77 -114 -144 -157 -29 -19 -56 -42 -59 -51 -35 -101 -136 -269 -192
-319 -39 -35 -75 -42 -85 -17 -3 9 -15 14 -28 12 -16 -2 -26 -16 -39 -53 -10
-27 -18 -60 -18 -73 -1 -13 -14 -43 -30 -66 -17 -24 -33 -56 -37 -72 -4 -16
-16 -47 -27 -69 -11 -22 -23 -70 -27 -107 -6 -50 -16 -80 -39 -116 -17 -27
-31 -55 -31 -63 0 -25 -32 -61 -68 -76 -63 -26 -65 -17 -63 237 1 204 0 221
-16 218 -23 -4 -92 -184 -99 -257 -7 -72 -7 -80 2 -114 8 -33 -15 -63 -64 -84
-52 -22 -62 -7 -55 81 4 56 2 79 -11 104 -12 23 -19 76 -26 175 -5 91 -14 156
-25 180 -10 24 -18 82 -22 153 -12 217 -23 113 -23 -211 0 -179 -2 -325 -5
-325 -2 0 -15 5 -29 11 -34 16 -57 77 -50 132 4 30 1 53 -10 75 -9 17 -18 64
-20 104 -2 40 -11 90 -20 110 -9 21 -16 52 -16 69 0 30 -10 71 -31 127 -5 12
-15 22 -22 22 -11 0 -15 -27 -20 -114 -4 -71 -12 -129 -22 -153 -11 -24 -20
-89 -25 -180 -7 -99 -14 -152 -26 -175 -13 -25 -15 -48 -11 -104 7 -88 -3
-103 -55 -81 -49 21 -72 51 -64 84 9 34 9 42 2 114 -7 73 -76 253 -99 257 -16
3 -17 -14 -16 -218 2 -254 0 -263 -63 -237 -36 15 -68 51 -68 76 0 8 -14 36
-31 63 -23 36 -33 66 -39 116 -4 37 -16 85 -27 107 -11 22 -23 53 -27 69 -4
16 -20 48 -37 72 -16 23 -29 53 -30 66 0 13 -8 46 -18 73 -13 37 -23 51 -39
53 -13 2 -25 -3 -28 -12 -10 -25 -46 -18 -85 17 -56 50 -157 218 -192 319 -3
9 -30 32 -59 51 -67 43 -137 118 -144 157 -4 16 -15 36 -25 46 -10 9 -25 38
-34 64 -16 48 -41 71 -51 47 -8 -22 3 -152 15 -175 6 -11 11 -29 11 -40 0 -11
9 -39 20 -63 11 -24 20 -56 20 -72 0 -15 14 -51 30 -80 17 -30 30 -65 30 -78
0 -13 14 -44 30 -68 34 -51 35 -54 15 -71 -12 -10 -23 -8 -57 9 -36 18 -51 35
-89 104 -26 45 -50 95 -53 112 -4 16 -21 47 -37 69 -17 24 -29 52 -29 71 0 18
-14 52 -31 80 -17 28 -38 67 -45 88 -14 39 -27 70 -74 172 -15 33 -31 74 -34
91 -4 18 -20 52 -36 77 -16 25 -32 63 -36 84 -9 51 -21 73 -41 73 -25 0 -12
-85 25 -165 19 -39 32 -83 32 -105 0 -49 24 -164 44 -212 9 -21 16 -48 16 -61
0 -13 13 -36 30 -52 19 -18 30 -39 30 -57 0 -15 7 -43 16 -62 19 -39 13 -66
-15 -66 -24 0 -91 74 -91 101 0 11 -11 37 -25 57 -14 20 -25 43 -25 51 0 7
-13 39 -30 70 -16 31 -36 72 -45 91 -8 19 -37 65 -65 101 -27 37 -53 84 -58
107 -6 26 -28 61 -60 99 -65 74 -118 148 -138 193 -9 19 -25 46 -36 60 -11 14
-26 40 -33 58 -9 21 -21 32 -34 32 -28 0 -28 -43 -1 -88 24 -40 27 -97 4 -106
-58 -22 -118 28 -180 152 -20 40 -56 98 -79 128 -27 35 -45 69 -49 96 -4 23
-20 60 -36 82 -17 22 -30 51 -30 65 0 15 -14 46 -30 71 -16 25 -30 55 -30 67
0 41 -18 73 -42 73 -13 0 -29 -4 -37 -9 -21 -13 -84 6 -107 33 -12 13 -25 46
-28 73 -4 26 -17 64 -28 83 -11 19 -23 55 -28 80 -4 25 -27 90 -50 145 -23 55
-52 135 -65 177 -13 42 -28 86 -35 97 -10 21 -29 28 -31 14z m113 -303 c25
-63 49 -132 52 -154 3 -21 12 -46 20 -55 9 -9 22 -48 30 -86 11 -54 21 -76 44
-96 34 -30 107 -48 125 -30 22 22 36 10 46 -40 6 -27 22 -67 36 -87 14 -20 25
-48 25 -63 0 -14 13 -43 29 -63 18 -22 35 -60 41 -93 9 -40 22 -67 48 -97 38
-43 58 -70 68 -96 21 -52 54 -107 90 -145 43 -48 74 -56 128 -35 23 8 26 15
26 54 0 28 -8 59 -21 81 -12 20 -19 38 -16 41 6 6 46 -59 78 -126 12 -25 25
-47 28 -50 4 -3 28 -34 53 -70 26 -36 61 -81 79 -100 18 -19 36 -51 40 -72 5
-20 33 -70 62 -111 30 -41 73 -114 96 -163 23 -49 53 -111 66 -139 14 -27 28
-62 31 -77 9 -40 79 -100 111 -96 38 4 51 30 34 70 -7 18 -16 52 -21 76 -4 25
-18 54 -33 70 -15 16 -27 37 -27 48 -1 10 -8 37 -16 59 -23 60 -43 155 -44
205 0 26 -9 62 -21 84 -11 21 -18 40 -16 42 8 8 38 -46 56 -104 11 -31 42
-108 69 -170 28 -62 53 -121 56 -130 3 -9 17 -32 31 -51 16 -22 25 -47 25 -72
0 -28 8 -47 29 -71 16 -18 34 -52 40 -75 17 -61 99 -192 135 -214 49 -30 87
-35 103 -13 17 24 10 57 -23 99 -13 17 -24 43 -24 56 0 13 -12 44 -27 69 -14
25 -29 66 -34 92 -4 26 -14 62 -22 80 -31 72 -63 267 -37 228 5 -8 10 -21 10
-28 0 -7 11 -28 24 -45 14 -18 28 -45 32 -60 7 -31 111 -140 163 -172 24 -15
43 -42 70 -100 77 -165 180 -295 234 -295 11 0 29 8 39 17 25 22 32 11 52 -75
8 -35 26 -80 39 -100 14 -20 28 -48 32 -62 4 -14 16 -45 27 -70 11 -24 24 -76
29 -115 7 -52 16 -81 38 -111 16 -23 32 -56 36 -73 14 -66 139 -116 160 -63 4
9 7 112 6 227 l-1 210 35 -90 c20 -49 38 -115 41 -145 6 -72 7 -70 -1 -111 -6
-29 -3 -40 19 -66 33 -40 83 -57 120 -43 l27 10 -7 83 c-5 70 -4 88 10 109 13
20 19 63 25 170 6 91 14 156 24 179 9 21 19 84 23 145 8 116 15 113 33 -17 5
-30 14 -66 21 -79 7 -12 14 -59 16 -103 2 -51 9 -89 20 -104 11 -18 14 -37 10
-71 -8 -60 7 -110 40 -139 31 -27 69 -30 78 -7 3 9 6 97 6 197 1 141 3 178 12
162 6 -10 15 -84 19 -163 6 -108 12 -150 25 -170 14 -21 15 -39 10 -109 l-7
-83 27 -10 c37 -14 87 3 120 43 22 26 25 37 19 66 -8 44 -8 42 1 114 4 31 22
97 40 145 l34 87 -1 -210 c-1 -115 2 -218 6 -227 21 -53 146 -3 160 63 4 17
20 50 36 73 22 30 31 59 38 111 5 39 18 91 29 115 11 25 23 56 27 70 4 14 18
42 32 62 13 20 31 65 39 100 20 86 27 97 52 75 10 -9 28 -17 38 -17 34 0 103
62 144 130 22 36 45 72 50 80 6 8 26 50 46 93 27 60 43 83 67 95 47 25 153
136 161 169 4 15 18 42 32 60 13 17 24 38 24 45 0 7 5 20 10 28 26 39 -6 -156
-37 -228 -8 -18 -18 -54 -22 -80 -5 -26 -20 -67 -34 -92 -15 -25 -27 -56 -27
-69 0 -13 -11 -39 -24 -56 -33 -43 -40 -75 -23 -99 13 -18 18 -19 58 -7 24 7
57 28 74 45 38 41 92 137 106 190 6 22 24 56 40 74 21 24 29 43 29 71 0 25 9
50 25 72 14 19 28 42 31 51 3 9 28 68 56 130 27 62 58 139 69 170 18 58 48
112 56 104 2 -2 -5 -21 -16 -42 -12 -22 -21 -58 -21 -84 -1 -50 -21 -145 -44
-205 -8 -22 -15 -49 -16 -59 0 -11 -12 -32 -27 -48 -15 -16 -29 -45 -33 -70
-5 -24 -14 -58 -21 -76 -17 -40 -4 -66 34 -70 32 -4 102 56 111 96 3 15 17 50
31 77 13 28 43 90 66 139 23 49 66 122 96 163 29 41 57 91 62 111 4 21 22 53
40 72 18 19 53 64 79 100 25 36 49 67 53 70 3 3 16 25 28 50 32 67 72 132 78
126 3 -3 -4 -21 -16 -41 -13 -22 -21 -53 -21 -81 0 -39 3 -46 26 -54 54 -21
85 -13 128 35 36 38 69 93 90 145 10 26 30 53 68 96 26 30 39 57 48 97 6 33
23 71 41 93 16 20 29 49 29 63 0 15 11 43 25 63 14 20 30 60 36 87 11 53 17
58 48 39 25 -15 102 6 131 37 13 14 28 51 36 91 8 38 21 76 30 85 8 9 17 34
20 55 3 22 27 91 52 154 25 63 56 147 68 185 l23 70 1 -73 c0 -49 -5 -83 -17
-105 -17 -33 -28 -108 -43 -287 -9 -110 -27 -205 -54 -279 -9 -24 -16 -63 -16
-87 0 -24 -4 -44 -10 -44 -5 0 -10 -17 -10 -39 0 -43 -18 -101 -31 -101 -5 0
-9 -31 -9 -70 0 -40 -4 -70 -10 -70 -5 0 -10 -9 -10 -20 0 -11 -4 -20 -10 -20
-5 0 -10 -10 -10 -22 0 -13 -12 -36 -26 -53 -21 -24 -27 -27 -35 -15 -5 8 -7
26 -4 39 3 12 1 39 -6 58 -15 45 -48 58 -105 42 l-42 -13 -7 -60 c-12 -114
-41 -196 -69 -196 -3 0 -6 29 -6 65 0 61 -2 66 -25 75 -19 7 -36 6 -60 -4 -37
-16 -43 -31 -71 -175 -27 -136 -32 -185 -26 -263 5 -75 -8 -138 -29 -138 -5 0
-9 -11 -9 -25 0 -26 -40 -75 -61 -75 -6 0 -19 8 -28 18 -34 36 -59 44 -104 30
-23 -7 -47 -18 -54 -24 -8 -8 -13 -62 -15 -168 -2 -86 -6 -156 -10 -156 -5 0
-8 -45 -8 -100 0 -60 -4 -100 -10 -100 -5 0 -10 -13 -10 -30 0 -16 -4 -30 -10
-30 -5 0 -10 -13 -10 -30 0 -16 -4 -30 -10 -30 -5 0 -10 -13 -10 -30 0 -16 -4
-30 -10 -30 -5 0 -10 -7 -10 -16 0 -9 -14 -29 -30 -44 -27 -25 -30 -34 -30
-92 0 -52 -4 -66 -20 -78 -12 -8 -20 -26 -20 -42 0 -15 -4 -28 -10 -28 -5 0
-10 -20 -10 -45 0 -35 -6 -52 -25 -70 -48 -49 -54 -38 -65 121 -6 85 -14 129
-24 139 -8 8 -17 37 -21 65 -4 27 -11 50 -16 50 -5 0 -9 22 -9 49 0 28 -5 53
-10 56 -6 4 -33 4 -60 0 l-50 -7 0 -98 c0 -70 -4 -100 -12 -102 -9 -3 -13 -34
-12 -108 1 -76 -3 -108 -12 -118 -21 -21 -44 8 -44 56 0 47 -19 66 -60 60 -27
-4 -30 -2 -23 16 23 73 -34 102 -97 49 -29 -24 -33 -25 -42 -10 -5 10 -21 17
-39 17 -39 0 -115 -70 -142 -130 -11 -25 -28 -56 -38 -69 -24 -30 -27 -166 -5
-197 33 -44 159 -6 221 68 29 34 33 21 14 -46 -8 -28 -8 -50 1 -80 13 -47 -1
-236 -21 -279 -11 -24 -16 -25 -74 -25 -65 1 -95 -13 -95 -46 0 -9 -4 -16 -9
-16 -17 0 -28 -158 -16 -219 5 -20 3 -36 -3 -40 -6 -3 -12 -45 -14 -91 -4
-102 -25 -134 -64 -96 -10 11 -14 42 -14 119 l0 105 -30 12 c-22 9 -37 9 -61
1 -18 -6 -34 -11 -37 -11 -2 0 12 18 32 40 20 22 36 46 36 54 0 7 9 25 20 39
11 14 25 49 32 79 7 30 24 67 40 86 31 37 38 91 13 112 -22 18 -79 4 -107 -26
-75 -84 -98 -104 -145 -128 -74 -37 -86 -59 -85 -158 0 -73 3 -84 22 -100 25
-20 71 -23 102 -7 21 11 41 3 21 -9 -15 -9 -24 -92 -28 -267 -6 -208 -13 -282
-30 -315 -9 -17 -15 -50 -14 -73 0 -23 -4 -64 -11 -92 -7 -27 -14 -70 -17 -95
-5 -49 -23 -75 -55 -83 -18 -5 -20 -3 -13 26 25 104 22 457 -3 504 -6 11 -11
38 -11 60 2 46 -10 229 -17 260 -6 31 -45 39 -81 18 -43 -25 -73 -78 -73 -127
0 -24 -9 -67 -20 -96 -13 -34 -20 -76 -20 -121 0 -70 -10 -134 -35 -226 -39
-146 -60 -216 -81 -272 -13 -34 -24 -79 -25 -100 0 -21 -4 -47 -8 -58 -5 -11
-7 72 -5 185 6 305 11 408 25 482 11 61 10 71 -9 121 -11 31 -23 88 -27 129
-9 107 -12 115 -41 122 -33 9 -111 -35 -124 -69 -5 -13 -7 -73 -5 -135 3 -95
1 -120 -16 -163 -13 -33 -18 -63 -15 -83 4 -20 0 -46 -13 -75 -14 -32 -18 -56
-14 -86 4 -30 1 -50 -11 -67 -14 -22 -16 -67 -16 -348 -1 -293 -2 -319 -15
-283 -8 22 -15 48 -15 58 0 11 -6 33 -14 50 -8 18 -16 43 -19 57 -3 14 -10 39
-15 55 -18 54 -34 119 -41 175 -4 30 -12 65 -19 77 -7 12 -12 41 -12 65 0 25
-9 60 -21 83 -16 29 -20 49 -16 80 4 28 0 53 -14 84 -13 29 -17 55 -13 75 3
20 -2 50 -15 83 -17 43 -19 68 -16 163 2 62 0 122 -5 135 -13 34 -91 78 -124
69 -29 -7 -32 -15 -41 -122 -4 -41 -16 -98 -27 -129 -20 -50 -20 -59 -8 -121
7 -37 14 -139 16 -227 2 -88 5 -227 8 -310 2 -86 1 -141 -4 -130 -5 11 -9 37
-9 58 -1 21 -12 66 -25 100 -21 56 -42 126 -81 272 -25 92 -35 156 -35 226 0
45 -7 87 -20 121 -11 29 -20 72 -20 96 0 49 -30 102 -73 127 -36 21 -75 13
-81 -18 -7 -31 -19 -214 -17 -260 0 -22 -5 -49 -11 -60 -26 -48 -28 -400 -3
-505 7 -29 6 -32 -11 -26 -37 13 -54 37 -54 72 0 20 -4 49 -9 66 -22 73 -27
103 -20 133 4 23 1 41 -12 63 -21 35 -28 98 -35 355 -4 144 -7 176 -25 212
-32 67 -118 84 -140 26 -5 -13 -9 -68 -9 -122 0 -82 -3 -101 -18 -115 -18 -15
-20 -15 -38 1 -16 15 -19 34 -21 112 -2 58 -7 97 -14 102 -8 4 -9 19 -4 40 12
61 1 219 -16 219 -5 0 -9 7 -9 16 0 33 -30 47 -95 46 -58 0 -63 1 -74 25 -20
43 -34 232 -21 279 9 30 9 52 1 80 -19 67 -15 80 14 46 62 -74 188 -112 221
-68 22 31 19 167 -5 197 -10 13 -27 44 -38 69 -27 60 -103 130 -142 130 -18 0
-34 -7 -39 -17 -9 -15 -13 -14 -42 10 -63 53 -120 24 -97 -49 7 -18 4 -20 -23
-16 -41 6 -60 -13 -60 -60 0 -48 -23 -77 -44 -56 -9 10 -13 42 -12 118 1 74
-3 105 -12 108 -8 2 -12 32 -12 102 l0 98 -50 7 c-27 4 -54 4 -60 0 -5 -3 -10
-28 -10 -56 0 -27 -4 -49 -8 -49 -4 0 -14 -27 -20 -59 -7 -33 -17 -61 -22 -63
-6 -2 -14 -60 -19 -130 -12 -161 -18 -172 -66 -123 -19 18 -25 35 -25 70 0 25
-4 45 -10 45 -5 0 -10 13 -10 28 0 16 -8 34 -20 42 -16 12 -20 26 -20 78 0 58
-3 67 -30 92 -18 17 -30 38 -30 54 0 14 -4 26 -10 26 -5 0 -10 9 -10 20 0 11
-4 20 -10 20 -5 0 -10 14 -10 30 0 17 -4 30 -10 30 -5 0 -10 14 -10 30 0 17
-4 30 -10 30 -6 0 -10 40 -10 100 0 55 -3 100 -7 100 -5 0 -9 70 -11 156 -2
106 -7 160 -15 168 -7 6 -31 17 -54 24 -43 13 -64 8 -98 -23 -16 -14 -26 -80
-34 -215 -5 -93 -9 -115 -21 -115 -9 0 -16 12 -18 30 -2 17 -7 35 -12 40 -4 6
-11 58 -15 117 -6 93 -5 110 11 138 14 25 16 34 7 37 -7 3 -13 13 -13 24 0 10
-4 19 -9 19 -21 0 -34 63 -29 138 6 78 1 127 -26 263 -27 141 -34 159 -68 173
-18 8 -42 11 -57 7 -24 -7 -26 -12 -29 -74 -2 -37 -5 -67 -8 -67 -28 0 -57 83
-69 196 l-7 60 -42 13 c-57 16 -90 3 -105 -42 -7 -19 -9 -46 -6 -58 3 -13 1
-31 -4 -39 -8 -12 -14 -9 -35 15 -14 17 -26 40 -26 53 0 12 -4 22 -10 22 -5 0
-10 9 -10 20 0 11 -4 20 -10 20 -6 0 -10 30 -10 70 0 39 -4 70 -10 70 -12 0
-30 65 -30 108 0 17 -4 32 -10 32 -5 0 -10 20 -10 44 0 24 -7 63 -16 87 -27
75 -45 170 -54 284 -13 169 -29 276 -45 292 -11 10 -15 37 -15 91 l1 77 23
-70 c12 -38 43 -122 68 -185z m1245 -1232 c-3 -7 -5 -2 -5 12 0 14 2 19 5 13
2 -7 2 -19 0 -25z m3630 0 c-3 -7 -5 -2 -5 12 0 14 2 19 5 13 2 -7 2 -19 0
-25z m-753 -1974 c25 -10 19 -50 -13 -86 -18 -21 -31 -50 -35 -79 -4 -25 -18
-61 -31 -80 -14 -18 -25 -38 -25 -45 0 -19 -49 -73 -81 -89 -36 -19 -83 -19
-99 0 -7 9 -12 44 -13 84 0 85 16 115 78 142 43 19 135 98 135 115 0 9 49 43
62 44 3 0 13 -3 22 -6z"/>
<path d="M2112 1858 c-22 -22 -14 -75 16 -110 16 -19 33 -56 40 -86 7 -30 21
-65 32 -79 11 -14 20 -32 20 -39 0 -22 61 -84 98 -99 46 -20 85 -19 112 3 19
16 22 28 23 99 1 99 -12 122 -86 159 -47 24 -137 105 -137 124 0 11 -64 40
-87 40 -10 0 -24 -5 -31 -12z m79 -25 c16 -10 29 -21 29 -26 0 -18 92 -97 135
-116 62 -27 78 -57 78 -142 -1 -40 -6 -75 -13 -84 -16 -19 -63 -19 -99 0 -32
16 -81 70 -81 89 0 7 -11 27 -25 45 -13 19 -27 55 -31 80 -4 29 -17 58 -35 79
-40 45 -38 87 4 91 5 1 22 -7 38 -16z"/>
</g>
</svg>
